<svg id="svg" version="1.1" xmlns="http://www.w3.org/2000/svg" xmlns:xlink="http://www.w3.org/1999/xlink" width="400" height="400" viewBox="0, 0, 400,400"><g id="svgg"><path id="path0" d="M198.800 38.282 C 197.355 38.811,196.304 40.407,194.795 44.365 C 191.812 52.190,191.465 52.981,188.472 58.800 C 184.136 67.228,181.509 71.311,177.636 75.644 C 175.746 77.758,173.660 80.098,173.000 80.844 C 172.340 81.590,170.090 83.707,168.000 85.549 C 165.910 87.391,164.245 89.056,164.300 89.249 C 164.355 89.442,164.149 89.600,163.843 89.600 C 163.536 89.600,163.189 89.852,163.070 90.161 C 162.952 90.470,161.610 91.715,160.089 92.929 C 156.558 95.746,145.296 106.969,143.251 109.709 C 142.392 110.859,140.700 112.854,139.489 114.143 C 135.462 118.432,135.440 118.308,140.824 121.597 C 144.210 123.665,144.455 123.635,146.464 120.900 C 150.101 115.950,157.342 108.419,165.985 100.600 C 176.051 91.493,183.976 83.537,186.905 79.600 C 188.459 77.510,189.926 75.668,190.165 75.506 C 190.404 75.344,190.445 75.209,190.256 75.206 C 190.066 75.203,190.287 74.885,190.746 74.500 C 191.601 73.783,198.393 61.380,198.397 60.527 C 198.400 59.980,200.892 55.159,201.077 55.344 C 201.145 55.412,201.978 57.348,202.927 59.646 C 203.877 61.945,205.497 65.324,206.527 67.156 C 207.557 68.988,208.400 70.568,208.400 70.667 C 208.400 72.670,224.451 91.031,230.185 95.588 C 231.854 96.915,239.507 104.008,243.361 107.801 C 248.546 112.904,252.462 117.300,255.710 121.662 C 257.568 124.158,259.563 126.740,260.143 127.399 C 260.722 128.059,261.423 129.049,261.699 129.599 C 261.976 130.150,263.228 132.400,264.481 134.600 C 265.734 136.800,267.431 140.220,268.251 142.200 C 269.071 144.180,269.870 145.890,270.025 146.000 C 270.520 146.349,272.809 154.262,273.805 159.065 C 277.116 175.032,276.044 186.819,269.992 201.000 C 269.804 201.440,269.528 202.250,269.379 202.800 C 267.953 208.057,259.686 216.796,247.851 225.559 C 244.799 227.819,240.624 231.182,238.574 233.034 C 236.524 234.885,234.623 236.400,234.349 236.400 C 234.076 236.400,233.456 236.772,232.972 237.226 L 232.092 238.053 231.590 235.926 C 231.314 234.757,230.905 233.350,230.681 232.800 C 230.458 232.250,230.248 231.620,230.215 231.400 C 230.181 231.180,230.052 230.730,229.926 230.400 C 229.800 230.070,228.839 227.100,227.789 223.800 C 225.744 217.371,221.663 207.262,220.427 205.566 C 220.012 204.997,218.770 202.747,217.665 200.566 C 215.612 196.511,211.634 190.069,208.375 185.523 L 206.550 182.977 208.375 180.713 C 211.667 176.628,218.945 168.960,222.809 165.504 C 224.894 163.640,227.410 161.354,228.400 160.424 C 232.759 156.330,246.714 145.458,251.401 142.504 C 252.502 141.811,253.762 140.910,254.201 140.502 C 255.346 139.440,259.887 136.400,260.329 136.400 C 261.805 136.400,261.562 135.175,259.479 132.116 C 258.295 130.377,257.127 128.605,256.884 128.177 C 256.348 127.236,256.818 126.985,248.337 132.742 C 239.234 138.922,231.622 144.867,226.434 149.850 C 223.885 152.298,219.603 156.314,216.917 158.774 C 212.321 162.985,206.427 169.142,202.428 173.910 C 200.310 176.435,200.934 176.662,196.632 171.800 C 190.020 164.328,173.680 148.528,168.400 144.500 C 165.650 142.402,162.860 140.210,162.200 139.629 C 160.863 138.452,159.154 137.239,152.412 132.682 C 145.029 127.691,141.485 125.385,140.200 124.737 C 138.717 123.988,136.810 122.888,134.200 121.274 C 130.354 118.897,123.769 115.417,120.000 113.770 C 117.910 112.857,114.622 111.365,112.694 110.455 C 98.385 103.706,79.137 99.007,75.689 101.423 C 73.658 102.845,74.694 105.200,79.353 109.752 C 89.409 119.578,90.331 129.074,84.603 163.800 C 82.635 175.728,80.871 187.361,80.568 190.410 L 80.308 193.020 84.054 193.917 C 89.448 195.207,89.600 195.159,89.600 192.141 C 89.600 191.375,89.765 190.439,89.967 190.061 C 90.169 189.683,90.440 188.390,90.568 187.187 C 90.696 185.984,91.336 181.760,91.989 177.800 C 96.054 153.186,96.319 151.433,97.012 144.624 C 98.147 133.470,97.605 123.826,95.465 117.087 C 94.926 115.389,94.632 114.000,94.811 114.000 C 95.798 114.000,110.369 119.498,110.800 120.033 C 110.910 120.170,113.250 121.331,116.000 122.613 C 118.750 123.896,122.911 125.992,125.248 127.272 C 127.584 128.553,129.699 129.600,129.948 129.600 C 130.196 129.600,130.400 129.764,130.400 129.965 C 130.400 130.166,131.615 131.038,133.100 131.903 C 139.612 135.696,145.497 139.450,146.200 140.261 C 146.420 140.515,147.860 141.524,149.400 142.504 C 152.855 144.702,157.489 148.171,163.952 153.400 C 166.671 155.600,169.685 157.987,170.648 158.704 C 171.612 159.421,172.400 160.186,172.400 160.404 C 172.400 160.622,172.599 160.800,172.842 160.800 C 173.086 160.800,173.654 161.270,174.106 161.844 C 174.557 162.418,176.328 164.083,178.040 165.544 C 181.138 168.187,190.079 177.619,192.857 181.175 L 194.314 183.039 193.105 184.620 C 190.240 188.366,185.344 196.210,182.679 201.325 C 181.096 204.364,179.488 207.433,179.106 208.144 C 176.920 212.218,171.649 227.002,170.601 232.000 C 170.440 232.770,170.150 233.597,169.957 233.837 C 169.765 234.077,169.539 234.797,169.456 235.437 C 169.173 237.615,168.802 238.126,168.018 237.416 C 167.642 237.076,167.221 236.912,167.083 237.051 C 166.944 237.190,165.158 235.729,163.115 233.806 C 161.072 231.882,156.556 228.154,153.080 225.522 C 141.173 216.504,134.158 208.442,131.783 201.048 C 131.209 199.261,130.487 197.408,130.179 196.928 C 127.225 192.334,125.403 178.888,126.376 168.857 C 127.025 162.158,129.035 152.207,129.982 151.000 C 130.155 150.780,130.527 149.880,130.810 149.000 C 131.536 146.742,133.892 140.924,134.914 138.867 L 135.774 137.135 134.787 136.376 C 133.764 135.590,128.662 132.800,128.247 132.800 C 127.864 132.800,125.834 137.066,123.839 142.067 C 114.875 164.537,115.087 187.763,124.419 205.533 C 127.403 211.214,127.339 211.385,123.200 208.782 C 120.448 207.052,109.642 203.495,99.600 201.015 C 98.170 200.661,96.640 200.200,96.200 199.990 C 95.372 199.593,87.213 197.630,83.000 196.814 C 80.188 196.269,67.048 193.469,63.000 192.553 C 59.459 191.751,54.842 190.471,53.800 190.003 C 53.360 189.805,51.560 189.082,49.800 188.397 C 44.477 186.324,39.365 182.707,37.419 179.636 C 28.728 165.914,26.044 175.713,28.827 211.000 C 29.036 213.640,29.295 217.240,29.404 219.000 C 29.513 220.760,29.774 222.920,29.984 223.800 C 30.194 224.680,30.558 227.200,30.795 229.400 C 32.348 243.874,36.258 261.073,39.798 269.000 C 40.093 269.660,41.414 272.720,42.734 275.800 C 44.957 280.987,48.070 287.025,49.675 289.260 C 50.046 289.777,51.915 292.540,53.830 295.400 C 57.822 301.364,58.124 301.768,60.698 304.582 C 61.744 305.726,63.230 307.452,64.000 308.418 C 67.162 312.386,77.167 321.866,82.800 326.232 C 85.330 328.192,87.580 329.999,87.800 330.246 C 88.437 330.961,98.382 337.342,100.768 338.566 C 101.960 339.178,103.220 339.964,103.568 340.313 C 104.096 340.843,108.669 343.112,113.800 345.391 C 116.024 346.379,119.783 347.870,122.400 348.803 C 123.830 349.313,125.201 349.884,125.448 350.071 C 128.333 352.265,156.768 358.813,169.800 360.285 C 173.450 360.697,174.389 360.799,178.400 361.220 C 185.552 361.970,197.973 361.925,199.383 361.145 C 200.479 360.539,200.640 360.539,201.570 361.145 C 202.753 361.917,215.059 361.974,222.400 361.241 C 224.710 361.010,227.860 360.723,229.400 360.603 C 230.940 360.483,232.560 360.228,233.000 360.037 C 233.440 359.845,235.510 359.474,237.600 359.212 C 248.163 357.886,272.657 352.061,273.134 350.761 C 273.208 350.560,273.441 350.502,273.652 350.632 C 273.863 350.762,274.432 350.613,274.918 350.301 C 275.403 349.988,277.330 349.179,279.200 348.502 C 286.242 345.954,296.931 341.019,297.600 340.007 C 297.710 339.841,298.760 339.220,299.934 338.628 C 301.108 338.036,304.168 336.205,306.734 334.559 C 311.010 331.817,312.098 331.024,315.768 327.977 C 316.446 327.415,318.170 326.078,319.600 325.008 C 322.951 322.499,333.505 312.451,335.785 309.600 C 336.752 308.390,338.574 306.320,339.833 305.000 C 341.092 303.680,342.726 301.700,343.464 300.600 C 344.202 299.500,346.525 296.080,348.626 293.000 C 353.152 286.366,354.276 284.320,358.187 275.600 C 363.835 263.005,366.727 252.711,368.973 237.200 C 369.340 234.670,369.805 232.060,370.007 231.400 C 370.209 230.740,370.476 229.030,370.600 227.600 C 370.724 226.170,371.074 222.390,371.377 219.200 C 373.460 197.296,373.614 178.761,371.742 175.100 C 370.389 172.454,367.092 174.153,363.662 179.264 C 361.318 182.757,356.230 186.451,351.095 188.389 C 349.283 189.073,347.440 189.793,347.000 189.988 C 344.909 190.916,333.136 193.776,326.296 195.018 C 324.293 195.381,324.305 195.338,324.808 200.275 C 325.331 205.420,325.053 205.068,328.111 204.464 C 334.170 203.267,343.818 201.070,344.000 200.846 C 344.110 200.711,344.380 200.599,344.600 200.598 C 346.449 200.590,359.884 195.435,362.165 193.859 L 363.329 193.054 363.083 200.827 C 362.469 220.265,359.154 243.661,355.239 256.200 C 354.827 257.520,354.126 259.770,353.681 261.200 C 350.010 272.992,343.167 285.139,332.629 298.567 C 331.543 299.952,324.296 307.676,320.981 310.984 C 316.727 315.228,305.084 324.257,299.800 327.409 C 298.260 328.328,296.120 329.677,295.043 330.406 C 292.730 331.975,285.459 335.588,281.252 337.259 C 279.613 337.910,276.996 339.038,275.436 339.766 C 267.990 343.241,250.887 347.554,232.400 350.619 C 228.017 351.346,227.070 351.367,228.195 350.715 C 228.633 350.461,229.173 350.107,229.395 349.927 C 229.618 349.747,230.970 348.997,232.400 348.260 C 240.258 344.208,241.600 343.437,241.600 342.976 C 241.600 342.698,243.080 341.616,244.888 340.573 C 291.620 313.618,321.563 264.983,321.596 215.980 C 321.598 212.559,321.758 209.589,321.951 209.380 C 322.324 208.977,321.857 200.596,321.196 195.800 C 320.983 194.260,320.720 191.939,320.610 190.642 C 320.500 189.345,320.234 187.725,320.020 187.042 C 319.806 186.359,319.269 183.370,318.828 180.400 C 318.387 177.430,317.139 169.420,316.054 162.600 C 312.959 143.144,313.013 143.650,313.007 134.000 C 312.998 121.537,314.603 116.295,319.925 111.400 C 326.740 105.132,327.210 104.489,326.639 102.214 C 325.325 96.977,301.331 103.599,275.700 116.273 C 269.831 119.175,269.869 119.122,271.700 121.871 C 272.415 122.945,273.235 124.268,273.522 124.812 C 274.936 127.486,274.773 127.466,278.875 125.481 C 293.467 118.421,296.946 116.903,303.326 114.811 C 306.497 113.772,306.605 113.811,305.813 115.706 C 303.407 121.465,302.537 133.929,303.782 144.800 C 304.680 152.640,308.534 177.360,309.083 178.800 C 309.208 179.130,309.375 180.300,309.453 181.400 C 309.531 182.500,309.767 183.850,309.978 184.400 C 310.434 185.588,311.812 196.236,312.385 203.000 C 313.530 216.510,312.407 233.585,309.794 242.400 C 309.501 243.390,308.587 246.540,307.762 249.400 C 304.980 259.056,302.455 264.996,296.744 275.323 C 294.795 278.848,293.200 281.780,293.200 281.838 C 293.200 281.896,292.435 283.060,291.500 284.425 C 290.565 285.790,289.620 287.193,289.400 287.544 C 289.180 287.895,288.811 288.366,288.579 288.591 C 288.348 288.816,287.631 289.810,286.987 290.800 C 279.185 302.795,262.022 319.231,248.649 327.513 C 247.128 328.455,245.235 329.737,244.442 330.363 C 241.686 332.538,225.521 341.268,215.200 346.154 C 206.883 350.092,203.494 352.249,201.670 354.767 C 200.448 356.453,200.187 356.437,199.017 354.600 C 197.389 352.046,192.865 349.412,179.800 343.408 C 178.260 342.701,175.590 341.284,173.867 340.261 C 172.144 339.237,170.630 338.400,170.504 338.400 C 170.377 338.400,168.068 337.140,165.372 335.600 C 162.677 334.060,160.320 332.790,160.136 332.778 C 159.951 332.766,158.810 332.059,157.600 331.206 C 156.390 330.353,154.176 328.878,152.679 327.928 C 137.869 318.523,121.992 303.118,112.559 289.000 C 111.383 287.240,109.781 284.900,108.998 283.800 C 108.215 282.700,106.651 280.090,105.522 278.000 C 104.393 275.910,103.115 273.570,102.681 272.800 C 97.015 262.727,92.470 249.856,89.563 235.649 C 88.814 231.984,88.000 222.202,88.000 216.851 L 88.000 211.280 85.900 210.787 C 84.745 210.516,83.530 210.159,83.200 209.994 C 82.870 209.828,81.808 209.562,80.840 209.401 L 79.080 209.109 79.324 218.455 C 80.607 267.563,110.069 314.214,156.700 340.976 C 158.515 342.018,160.001 343.079,160.003 343.335 C 160.007 343.840,161.283 344.597,167.400 347.720 C 174.385 351.286,174.485 351.574,168.400 350.607 C 151.801 347.969,129.482 342.352,125.340 339.770 C 124.866 339.475,122.796 338.571,120.740 337.762 C 115.449 335.680,107.954 331.901,104.200 329.423 C 102.440 328.261,99.762 326.529,98.249 325.575 C 92.348 321.853,82.033 313.263,76.425 307.402 C 74.321 305.203,71.829 302.593,70.886 301.602 C 68.851 299.462,63.453 292.591,61.421 289.554 C 60.628 288.369,59.319 286.410,58.512 285.200 C 56.216 281.759,50.588 270.410,48.248 264.505 C 45.522 257.622,41.385 239.652,40.213 229.600 C 40.124 228.830,39.871 227.030,39.653 225.600 C 38.966 221.108,37.037 193.916,37.364 193.336 C 37.384 193.301,39.111 194.113,41.203 195.141 C 43.294 196.169,48.154 198.036,52.003 199.290 C 58.826 201.512,60.680 201.968,75.200 204.995 C 85.356 207.112,96.104 209.586,96.818 209.971 C 97.158 210.155,100.128 211.070,103.418 212.004 C 112.764 214.660,124.933 218.971,126.400 220.146 C 126.730 220.411,128.350 221.251,130.000 222.014 C 131.650 222.776,134.499 224.255,136.332 225.300 C 138.164 226.345,139.784 227.206,139.932 227.214 C 140.079 227.221,141.232 227.986,142.493 228.914 C 143.754 229.841,146.544 231.883,148.693 233.451 C 156.710 239.300,167.041 249.715,166.650 251.554 C 166.137 253.965,165.930 269.662,166.346 274.600 C 167.308 286.031,173.837 304.374,181.009 315.800 C 183.401 319.610,189.226 327.592,190.214 328.411 C 190.536 328.679,190.800 329.198,190.800 329.564 C 190.800 330.377,194.148 333.689,195.800 334.511 C 197.854 335.533,203.444 335.349,205.431 334.195 C 207.234 333.147,210.400 330.065,210.400 329.357 C 210.400 329.109,211.507 327.487,212.859 325.753 C 221.251 314.995,229.060 299.707,232.552 287.200 C 234.370 280.690,235.357 263.934,234.446 255.030 C 233.941 250.088,233.847 250.377,237.076 246.970 C 239.707 244.194,247.130 237.199,248.600 236.110 C 249.260 235.621,251.150 234.234,252.800 233.028 C 254.450 231.822,256.299 230.423,256.910 229.918 C 258.480 228.619,267.231 223.657,270.800 222.042 C 272.450 221.295,274.070 220.470,274.400 220.209 C 275.574 219.280,286.759 215.102,292.600 213.412 C 293.920 213.030,296.404 212.286,298.121 211.759 C 299.837 211.231,301.457 210.799,301.721 210.798 C 301.984 210.796,302.650 210.560,303.200 210.273 C 303.750 209.986,305.342 209.509,306.739 209.213 L 309.277 208.674 309.010 204.637 C 308.625 198.816,307.930 198.103,304.483 199.988 C 304.107 200.194,301.010 201.097,297.600 201.995 C 294.190 202.894,290.950 203.780,290.400 203.966 C 289.850 204.151,287.510 204.902,285.200 205.634 C 282.890 206.366,280.460 207.360,279.800 207.843 C 278.506 208.790,275.575 210.108,275.323 209.856 C 275.238 209.772,276.157 207.834,277.364 205.551 C 287.123 187.094,286.736 161.884,276.332 138.284 C 274.994 135.249,273.999 132.668,274.121 132.546 C 274.451 132.215,271.345 126.602,269.413 124.040 C 268.485 122.808,267.048 120.732,266.221 119.427 C 264.724 117.066,260.600 111.764,260.075 111.525 C 259.924 111.456,258.521 109.870,256.957 108.000 C 254.278 104.797,242.063 92.755,241.199 92.467 C 239.973 92.057,226.591 78.707,223.088 74.400 C 221.747 72.750,220.407 71.130,220.112 70.800 C 217.568 67.957,210.833 54.701,207.564 46.105 C 204.656 38.458,202.815 36.815,198.800 38.282 M203.525 195.541 C 205.106 197.928,206.400 199.982,206.400 200.105 C 206.400 200.456,209.719 206.174,210.060 206.413 C 212.335 208.001,221.462 233.438,223.179 242.979 L 223.968 247.359 222.171 249.979 C 221.183 251.421,219.593 253.680,218.639 255.000 C 216.387 258.115,213.220 264.025,208.885 273.200 C 207.031 277.124,203.814 286.749,201.921 294.031 C 200.538 299.352,200.172 299.627,199.397 295.927 C 198.467 291.487,194.814 280.002,192.463 274.128 C 190.119 268.271,182.095 253.976,180.018 251.958 C 179.655 251.605,178.781 250.417,178.076 249.318 L 176.794 247.320 177.423 243.960 C 178.069 240.507,179.447 234.666,179.868 233.600 C 179.998 233.270,181.144 229.940,182.415 226.200 C 185.784 216.285,188.285 210.649,192.179 204.200 C 193.374 202.220,194.363 200.462,194.376 200.294 C 194.417 199.773,200.062 191.200,200.364 191.200 C 200.521 191.200,201.943 193.153,203.525 195.541 M225.423 267.500 C 224.793 279.042,222.890 289.077,220.225 294.910 C 219.700 296.059,218.541 298.658,217.650 300.684 C 215.157 306.354,212.033 311.843,209.066 315.766 L 206.369 319.333 206.621 317.566 C 207.447 311.779,209.399 301.881,209.968 300.600 C 210.164 300.160,210.982 297.370,211.786 294.400 C 214.789 283.311,218.766 273.681,223.886 265.100 C 225.705 262.050,225.719 262.071,225.423 267.500 M177.811 266.500 C 182.016 273.817,184.902 280.669,187.794 290.200 C 188.595 292.840,189.358 295.270,189.491 295.600 C 189.623 295.930,189.754 296.290,189.783 296.400 C 189.811 296.510,190.041 297.230,190.295 298.000 C 191.380 301.299,194.622 318.311,194.239 318.694 C 193.386 319.547,184.748 304.900,181.930 297.822 C 181.050 295.610,180.179 293.618,179.996 293.397 C 177.988 290.966,174.037 263.200,175.698 263.200 C 175.817 263.200,176.768 264.685,177.811 266.500 " stroke="none" fill="#fbfbfb" fill-rule="evenodd"></path><path id="path1" d="M200.177 72.700 C 200.008 73.085,199.854 73.520,199.835 73.667 C 199.816 73.813,199.649 74.083,199.465 74.267 C 199.280 74.450,198.866 75.230,198.544 76.000 C 198.222 76.770,197.658 77.850,197.290 78.400 C 196.922 78.950,196.616 79.522,196.610 79.670 C 196.569 80.754,180.724 96.800,179.696 96.800 C 179.397 96.800,179.264 96.980,179.400 97.200 C 179.536 97.420,179.484 97.600,179.285 97.600 C 178.370 97.600,158.800 116.886,158.800 117.787 C 158.800 117.923,158.346 118.522,157.791 119.117 C 154.652 122.485,154.697 128.994,157.872 130.920 C 158.163 131.096,158.400 131.452,158.400 131.711 C 158.400 131.970,159.075 132.825,159.900 133.610 C 161.915 135.527,166.196 140.118,166.218 140.386 C 166.243 140.684,174.407 149.098,177.800 152.322 C 183.187 157.441,195.480 169.825,197.929 172.600 L 200.400 175.400 202.880 172.600 C 207.326 167.581,216.091 158.821,221.200 154.290 C 228.187 148.094,240.630 135.417,240.457 134.670 C 240.415 134.489,240.543 134.441,240.743 134.564 C 240.942 134.688,241.531 134.162,242.052 133.397 C 242.574 132.632,243.146 132.004,243.324 132.003 C 243.502 132.001,243.536 131.820,243.400 131.600 C 243.264 131.380,243.330 131.200,243.547 131.200 C 243.764 131.200,244.518 130.192,245.223 128.960 C 247.857 124.356,246.472 120.971,238.761 113.179 C 236.378 110.770,234.535 108.800,234.665 108.800 C 234.795 108.800,234.036 107.909,232.980 106.820 C 231.923 105.731,230.952 104.906,230.822 104.986 C 230.692 105.067,228.432 102.988,225.800 100.366 C 223.168 97.745,220.822 95.600,220.586 95.600 C 219.915 95.600,207.799 83.436,206.351 81.308 C 205.637 80.259,204.861 79.268,204.626 79.106 C 204.392 78.944,204.337 78.809,204.505 78.806 C 204.673 78.803,204.392 78.125,203.880 77.300 C 203.369 76.475,202.707 75.170,202.408 74.400 C 201.464 71.963,200.744 71.414,200.177 72.700 M103.200 122.913 C 103.200 123.195,103.835 124.621,104.610 126.082 C 106.556 129.745,106.747 132.772,105.643 142.400 C 103.335 162.526,104.043 180.505,107.467 188.700 C 107.802 189.501,108.139 190.485,108.217 190.886 C 108.294 191.288,108.771 192.198,109.277 192.908 C 109.783 193.619,110.146 194.249,110.084 194.310 C 109.202 195.169,118.420 205.409,122.362 207.949 C 126.011 210.300,126.129 210.100,123.812 205.479 C 115.948 189.791,114.734 172.818,120.020 152.450 C 121.645 146.187,124.132 139.292,126.357 134.885 L 127.593 132.437 124.302 130.718 C 120.642 128.807,115.278 126.400,114.677 126.400 C 114.463 126.400,113.548 126.057,112.644 125.637 C 107.734 123.360,103.200 122.052,103.200 122.913 M295.400 123.161 C 289.745 125.155,283.930 127.494,281.700 128.672 C 280.325 129.399,279.200 129.877,279.200 129.735 C 279.200 129.593,278.885 129.744,278.500 130.072 C 278.115 130.400,277.221 130.897,276.513 131.177 C 274.280 132.061,274.266 132.318,276.220 136.757 C 287.399 162.160,287.906 185.367,277.725 205.734 C 276.070 209.043,276.017 209.249,276.879 208.983 C 279.892 208.051,285.375 203.460,288.322 199.400 C 289.120 198.300,289.960 197.268,290.187 197.106 C 290.451 196.918,290.456 196.806,290.200 196.794 C 289.980 196.784,290.119 196.590,290.508 196.363 C 290.898 196.136,291.112 195.782,290.985 195.575 C 290.857 195.369,290.905 195.200,291.090 195.200 C 291.276 195.200,291.746 194.660,292.136 194.000 C 292.526 193.340,292.723 192.800,292.574 192.800 C 292.424 192.800,292.485 192.575,292.709 192.300 C 296.553 187.578,298.473 165.676,296.611 147.786 C 296.398 145.741,295.934 141.640,295.793 140.561 C 294.897 133.689,295.414 128.108,297.178 125.631 C 299.247 122.726,298.718 121.992,295.400 123.161 M138.400 143.800 C 138.126 144.130,138.059 144.403,138.251 144.406 C 138.443 144.409,138.393 144.544,138.140 144.706 C 137.887 144.868,137.617 145.360,137.540 145.800 C 137.463 146.240,137.307 146.690,137.193 146.800 C 136.727 147.250,133.444 160.326,132.422 165.800 C 129.965 178.961,129.806 195.043,132.072 201.101 C 134.324 207.121,143.533 218.069,150.506 223.018 C 154.031 225.519,164.371 234.035,165.958 235.744 C 167.203 237.084,167.599 236.779,167.603 234.476 C 167.609 230.780,169.643 220.940,170.525 220.345 C 170.732 220.204,170.786 219.902,170.645 219.672 C 170.503 219.443,170.556 219.151,170.762 219.023 C 171.046 218.848,172.632 214.753,173.017 213.200 C 173.045 213.090,173.277 212.493,173.534 211.874 C 173.790 211.255,174.000 210.668,174.000 210.570 C 174.000 210.471,175.080 208.206,176.400 205.535 C 177.720 202.864,178.800 200.469,178.800 200.214 C 178.800 199.959,179.121 199.402,179.512 198.975 C 181.204 197.134,186.400 187.030,186.400 185.581 C 186.400 184.590,185.932 183.735,183.513 180.310 C 183.011 179.599,180.542 176.943,178.027 174.408 C 175.511 171.874,173.441 169.681,173.427 169.536 C 173.412 169.391,172.860 168.857,172.200 168.349 C 171.540 167.841,170.100 166.583,169.000 165.553 C 167.900 164.524,166.190 163.015,165.200 162.202 C 164.210 161.388,163.001 160.245,162.514 159.661 C 162.027 159.078,161.620 158.780,161.608 159.000 C 161.595 159.255,161.481 159.250,161.294 158.986 C 160.552 157.939,149.606 149.433,149.587 149.889 C 149.580 150.060,149.325 149.871,149.020 149.468 C 146.781 146.514,139.412 142.581,138.400 143.800 M260.230 143.865 C 259.587 144.213,258.700 144.834,258.260 145.245 C 257.819 145.655,257.131 146.095,256.729 146.222 C 256.328 146.350,256.000 146.622,256.000 146.827 C 256.000 147.032,255.775 147.204,255.500 147.209 C 255.225 147.215,253.920 148.203,252.600 149.406 C 251.280 150.609,250.020 151.597,249.800 151.602 C 249.395 151.610,244.917 155.035,242.463 157.213 C 241.727 157.866,240.971 158.400,240.783 158.400 C 240.594 158.400,240.282 158.682,240.089 159.027 C 239.896 159.371,239.280 159.956,238.719 160.327 C 235.990 162.130,218.800 178.751,218.800 179.587 C 218.800 179.794,218.350 180.414,217.800 180.964 C 217.250 181.514,216.800 182.078,216.800 182.219 C 216.800 182.359,216.440 182.931,216.000 183.491 C 214.665 185.188,216.343 190.266,219.805 195.000 C 221.146 196.832,226.811 208.299,227.414 210.400 C 227.572 210.950,227.952 211.893,228.259 212.496 C 228.565 213.099,228.782 213.639,228.741 213.696 C 228.699 213.753,228.914 214.250,229.218 214.800 C 229.523 215.350,229.789 215.890,229.810 216.000 C 229.831 216.110,230.153 216.897,230.524 217.749 C 230.896 218.601,231.200 219.453,231.200 219.643 C 231.200 219.833,231.633 221.483,232.163 223.310 C 233.364 227.456,233.575 228.606,233.864 232.600 C 233.991 234.360,234.156 235.867,234.229 235.948 C 234.303 236.030,236.936 233.886,240.081 231.184 C 243.227 228.482,247.136 225.356,248.770 224.236 C 258.887 217.300,268.886 205.988,270.232 199.953 C 270.324 199.539,270.499 198.795,270.619 198.300 C 271.413 195.044,271.688 176.314,270.960 175.135 C 270.810 174.892,270.636 174.042,270.575 173.247 C 270.464 171.815,270.128 169.800,270.000 169.800 C 269.964 169.800,269.856 169.260,269.761 168.600 C 268.927 162.816,265.442 148.968,264.003 145.714 C 262.821 143.042,262.260 142.767,260.230 143.865 M47.341 209.300 C 47.654 213.728,48.733 221.764,49.174 222.951 C 49.348 223.418,49.438 224.129,49.376 224.531 C 49.313 224.933,49.505 226.103,49.803 227.131 C 50.101 228.159,50.452 229.720,50.583 230.600 C 51.082 233.948,51.583 236.696,52.188 239.400 C 52.533 240.940,52.992 243.081,53.208 244.157 C 53.424 245.233,54.160 248.023,54.844 250.357 C 55.527 252.691,56.267 255.230,56.487 256.000 C 56.708 256.770,57.154 257.917,57.479 258.548 C 57.804 259.180,58.156 260.166,58.260 260.740 C 58.364 261.314,58.587 261.877,58.756 261.991 C 58.926 262.106,59.320 262.821,59.632 263.581 C 60.879 266.613,66.007 276.709,67.159 278.400 C 67.834 279.390,68.389 280.357,68.393 280.550 C 68.401 280.966,72.830 287.025,74.747 289.242 C 75.487 290.099,75.975 290.800,75.831 290.800 C 75.501 290.800,76.093 291.530,78.537 294.135 C 79.602 295.271,81.490 297.370,82.734 298.800 C 86.022 302.581,87.889 304.450,90.673 306.746 C 92.034 307.867,93.744 309.397,94.473 310.144 C 95.823 311.528,99.432 314.400,99.820 314.400 C 99.938 314.400,100.251 314.589,100.517 314.820 C 100.783 315.050,102.260 316.134,103.800 317.228 C 105.340 318.322,106.960 319.547,107.400 319.950 C 107.840 320.353,108.806 320.994,109.548 321.376 C 110.289 321.758,111.751 322.685,112.797 323.436 C 113.842 324.187,116.656 325.814,119.049 327.051 C 121.442 328.287,124.139 329.829,125.043 330.477 C 125.947 331.124,126.937 331.701,127.243 331.759 C 127.878 331.878,132.875 334.126,134.439 334.995 C 135.011 335.313,136.811 336.042,138.439 336.616 C 140.068 337.189,141.940 337.898,142.600 338.191 C 143.260 338.484,144.430 338.902,145.200 339.120 C 145.970 339.339,147.252 339.799,148.049 340.143 C 148.846 340.487,149.611 340.655,149.749 340.517 C 149.887 340.380,150.000 340.456,150.000 340.688 C 150.000 341.126,159.114 343.819,159.453 343.481 C 159.559 343.374,157.340 341.883,154.523 340.166 C 131.475 326.122,115.903 311.382,102.579 290.998 C 86.296 266.087,79.158 243.681,79.036 217.102 C 79.001 209.495,78.971 209.203,78.200 209.170 C 77.760 209.151,76.950 209.082,76.400 209.017 C 75.850 208.952,71.890 208.509,67.600 208.034 C 63.310 207.559,57.591 206.817,54.891 206.385 C 52.192 205.953,49.330 205.600,48.531 205.600 L 47.080 205.600 47.341 209.300 M349.400 206.000 C 346.584 206.550,334.510 208.043,328.200 208.622 C 324.430 208.968,322.713 209.207,322.343 209.436 C 322.154 209.552,322.000 212.768,322.000 216.581 C 322.000 263.908,293.999 310.644,248.909 338.578 C 241.298 343.293,240.628 343.858,243.113 343.460 C 244.796 343.191,250.625 341.451,252.400 340.687 C 252.950 340.451,253.490 340.229,253.600 340.194 C 253.710 340.159,254.070 340.019,254.400 339.882 C 254.730 339.745,257.430 338.747,260.400 337.663 C 263.370 336.580,266.790 335.243,268.000 334.693 C 269.210 334.143,270.785 333.470,271.500 333.198 C 272.215 332.926,272.800 332.566,272.800 332.398 C 272.800 332.122,273.697 331.735,275.135 331.389 C 275.429 331.318,275.978 330.982,276.353 330.642 C 276.729 330.302,278.378 329.333,280.018 328.489 C 283.923 326.479,286.854 324.818,287.600 324.194 C 287.930 323.917,289.145 323.218,290.300 322.639 C 291.455 322.060,292.400 321.399,292.400 321.170 C 292.400 320.940,292.560 320.851,292.755 320.972 C 292.950 321.093,293.332 320.923,293.603 320.596 C 294.085 320.016,297.295 317.651,301.461 314.807 C 302.595 314.033,305.088 311.960,307.002 310.200 C 308.915 308.440,310.778 306.836,311.140 306.635 C 312.310 305.989,319.487 298.454,324.748 292.347 C 325.437 291.548,326.000 290.708,326.000 290.481 C 326.000 290.253,326.146 290.007,326.325 289.933 C 326.504 289.860,327.428 288.720,328.379 287.400 C 329.329 286.080,330.315 284.820,330.568 284.600 C 331.230 284.026,332.534 282.110,333.833 279.800 C 337.856 272.653,339.192 270.144,339.196 269.729 C 339.198 269.469,339.448 269.009,339.752 268.705 C 341.815 266.643,348.427 246.680,349.426 239.500 C 349.572 238.455,349.820 237.600,349.979 237.600 C 350.137 237.600,350.286 237.375,350.310 237.100 C 350.334 236.825,350.538 235.610,350.764 234.400 C 350.989 233.190,351.276 231.570,351.401 230.800 C 351.526 230.030,351.797 228.410,352.003 227.200 C 352.652 223.383,352.760 222.654,353.005 220.400 C 353.137 219.190,353.416 217.030,353.625 215.600 C 353.835 214.170,354.120 211.335,354.260 209.300 L 354.514 205.600 352.757 205.644 C 351.791 205.668,350.280 205.828,349.400 206.000 M110.263 224.579 C 110.035 225.175,112.361 237.433,114.252 245.600 C 115.785 252.220,118.743 261.600,119.298 261.600 C 119.464 261.600,119.601 261.825,119.602 262.100 C 119.608 263.127,126.746 276.629,127.586 277.200 C 127.748 277.310,127.952 277.612,128.040 277.871 C 128.128 278.129,128.690 278.939,129.288 279.671 C 129.887 280.402,131.597 282.636,133.088 284.635 C 139.308 292.971,145.237 299.257,156.333 309.277 C 159.631 312.255,166.704 317.213,170.100 318.927 C 170.925 319.343,171.600 319.855,171.600 320.065 C 171.600 320.275,171.753 320.353,171.939 320.237 C 172.126 320.122,172.631 320.336,173.061 320.714 C 173.492 321.091,174.194 321.626,174.622 321.901 C 176.259 322.956,190.060 329.673,190.234 329.500 C 190.334 329.399,189.341 328.034,188.028 326.465 C 174.680 310.530,164.725 282.976,163.362 258.200 C 163.098 253.395,162.035 250.877,160.244 250.813 C 160.048 250.806,159.418 250.350,158.844 249.799 C 156.961 247.995,155.053 246.563,151.400 244.213 C 149.420 242.940,146.934 241.246,145.877 240.449 C 144.819 239.652,143.874 239.044,143.778 239.098 C 143.682 239.153,143.168 238.819,142.637 238.357 C 142.106 237.896,141.540 237.552,141.380 237.593 C 141.220 237.634,140.979 237.518,140.845 237.334 C 138.656 234.346,110.950 222.790,110.263 224.579 M285.400 225.540 C 283.200 226.362,281.040 227.189,280.600 227.378 C 280.160 227.567,279.563 227.770,279.272 227.829 C 278.713 227.944,264.887 234.880,262.233 236.377 C 261.372 236.863,258.762 238.556,256.433 240.138 C 254.105 241.721,251.300 243.574,250.200 244.256 C 249.100 244.939,247.767 245.880,247.239 246.349 C 246.710 246.817,246.133 247.200,245.956 247.200 C 245.779 247.200,244.917 247.875,244.041 248.700 C 243.165 249.525,241.871 250.650,241.166 251.200 C 238.494 253.285,238.547 253.159,238.264 258.108 C 237.889 264.678,237.140 270.145,235.923 275.200 C 230.589 297.353,222.452 315.401,212.671 326.776 C 209.363 330.623,209.996 330.556,218.634 326.144 C 228.590 321.059,228.552 321.080,229.176 320.469 C 229.492 320.159,230.257 319.729,230.876 319.514 C 231.494 319.298,232.000 318.959,232.000 318.761 C 232.000 318.562,232.194 318.400,232.431 318.400 C 232.964 318.400,238.950 314.422,239.133 313.946 C 239.207 313.756,239.485 313.600,239.752 313.600 C 241.048 313.600,250.925 304.789,258.200 297.142 C 259.960 295.292,261.416 293.694,261.436 293.589 C 261.456 293.485,262.086 292.738,262.836 291.929 C 263.586 291.120,264.830 289.625,265.600 288.607 C 266.370 287.589,267.585 286.091,268.300 285.278 C 269.015 284.465,269.600 283.684,269.600 283.542 C 269.600 283.401,270.140 282.707,270.800 282.000 C 271.460 281.293,272.000 280.544,272.000 280.334 C 272.000 280.009,273.896 277.265,275.181 275.730 C 275.398 275.472,276.594 273.312,277.839 270.930 C 279.085 268.549,280.406 266.150,280.775 265.600 C 282.855 262.501,287.143 248.206,288.995 238.200 C 289.362 236.220,289.914 233.790,290.223 232.800 C 292.984 223.947,292.324 222.952,285.400 225.540 " stroke="none" fill="#7cccdc" fill-rule="evenodd"></path><path id="path2" d="M179.200 154.125 C 179.200 154.194,179.785 154.779,180.500 155.425 L 181.800 156.600 180.625 155.300 C 179.530 154.088,179.200 153.816,179.200 154.125 M219.578 155.900 L 218.200 157.400 219.700 156.022 C 221.096 154.738,221.384 154.400,221.078 154.400 C 221.012 154.400,220.337 155.075,219.578 155.900 M184.000 158.525 C 184.000 158.594,184.585 159.179,185.300 159.825 L 186.600 161.000 185.425 159.700 C 184.330 158.488,184.000 158.216,184.000 158.525 M211.992 163.100 L 208.200 167.000 212.100 163.208 C 214.245 161.122,216.000 159.367,216.000 159.308 C 216.000 159.018,215.514 159.478,211.992 163.100 M191.800 166.400 C 192.659 167.280,193.452 168.000,193.562 168.000 C 193.672 168.000,193.059 167.280,192.200 166.400 C 191.341 165.520,190.548 164.800,190.438 164.800 C 190.328 164.800,190.941 165.520,191.800 166.400 M284.501 170.600 C 284.505 171.480,284.587 171.793,284.683 171.295 C 284.779 170.798,284.775 170.078,284.675 169.695 C 284.575 169.313,284.496 169.720,284.501 170.600 M116.940 175.600 C 116.940 177.470,117.009 178.235,117.093 177.300 C 117.177 176.365,117.177 174.835,117.093 173.900 C 117.009 172.965,116.940 173.730,116.940 175.600 M284.501 180.600 C 284.505 181.480,284.587 181.793,284.683 181.295 C 284.779 180.798,284.775 180.078,284.675 179.695 C 284.575 179.313,284.496 179.720,284.501 180.600 M321.746 215.800 C 321.747 218.000,321.814 218.849,321.895 217.687 C 321.976 216.524,321.976 214.724,321.893 213.687 C 321.811 212.649,321.745 213.600,321.746 215.800 M142.800 217.000 C 143.546 217.770,144.247 218.400,144.357 218.400 C 144.467 218.400,143.946 217.770,143.200 217.000 C 142.454 216.230,141.753 215.600,141.643 215.600 C 141.533 215.600,142.054 216.230,142.800 217.000 M279.578 313.900 L 278.200 315.400 279.700 314.022 C 280.525 313.263,281.200 312.588,281.200 312.522 C 281.200 312.216,280.862 312.504,279.578 313.900 M121.400 314.400 C 122.259 315.280,123.052 316.000,123.162 316.000 C 123.272 316.000,122.659 315.280,121.800 314.400 C 120.941 313.520,120.148 312.800,120.038 312.800 C 119.928 312.800,120.541 313.520,121.400 314.400 M124.800 317.800 C 125.546 318.570,126.247 319.200,126.357 319.200 C 126.467 319.200,125.946 318.570,125.200 317.800 C 124.454 317.030,123.753 316.400,123.643 316.400 C 123.533 316.400,124.054 317.030,124.800 317.800 M274.575 318.900 L 273.400 320.200 274.700 319.025 C 275.415 318.379,276.000 317.794,276.000 317.725 C 276.000 317.416,275.670 317.688,274.575 318.900 " stroke="none" fill="#b1dce6" fill-rule="evenodd"></path><path id="path3" d="M182.200 156.800 C 183.059 157.680,183.852 158.400,183.962 158.400 C 184.072 158.400,183.459 157.680,182.600 156.800 C 181.741 155.920,180.948 155.200,180.838 155.200 C 180.728 155.200,181.341 155.920,182.200 156.800 M217.381 157.700 L 215.800 159.400 217.500 157.819 C 219.081 156.348,219.384 156.000,219.081 156.000 C 219.016 156.000,218.251 156.765,217.381 157.700 M117.293 166.000 C 117.293 166.770,117.375 167.085,117.476 166.700 C 117.576 166.315,117.576 165.685,117.476 165.300 C 117.375 164.915,117.293 165.230,117.293 166.000 M206.778 168.300 L 205.400 169.800 206.900 168.422 C 208.296 167.138,208.584 166.800,208.278 166.800 C 208.212 166.800,207.537 167.475,206.778 168.300 M116.914 170.600 C 116.917 171.700,116.995 172.103,117.087 171.495 C 117.179 170.886,117.177 169.986,117.082 169.495 C 116.987 169.003,116.911 169.500,116.914 170.600 M284.893 175.600 C 284.893 176.370,284.975 176.685,285.076 176.300 C 285.176 175.915,285.176 175.285,285.076 174.900 C 284.975 174.515,284.893 174.830,284.893 175.600 M116.914 180.600 C 116.917 181.700,116.995 182.103,117.087 181.495 C 117.179 180.886,117.177 179.986,117.082 179.495 C 116.987 179.003,116.911 179.500,116.914 180.600 M271.301 182.600 C 271.305 183.480,271.387 183.793,271.483 183.295 C 271.579 182.798,271.575 182.078,271.475 181.695 C 271.375 181.313,271.296 181.720,271.301 182.600 M271.301 189.800 C 271.305 190.680,271.387 190.993,271.483 190.495 C 271.579 189.998,271.575 189.278,271.475 188.895 C 271.375 188.513,271.296 188.920,271.301 189.800 M78.962 215.800 C 78.962 219.320,79.024 220.706,79.098 218.881 C 79.172 217.056,79.172 214.176,79.097 212.481 C 79.022 210.786,78.961 212.280,78.962 215.800 M140.400 214.110 C 140.400 214.171,141.795 215.566,143.500 217.210 L 146.600 220.200 143.610 217.100 C 140.833 214.221,140.400 213.817,140.400 214.110 M259.381 215.700 L 257.800 217.400 259.500 215.819 C 261.081 214.348,261.384 214.000,261.081 214.000 C 261.016 214.000,260.251 214.765,259.381 215.700 M321.734 222.400 C 321.734 224.050,321.805 224.725,321.891 223.900 C 321.978 223.075,321.978 221.725,321.891 220.900 C 321.805 220.075,321.734 220.750,321.734 222.400 M321.293 228.400 C 321.293 229.170,321.375 229.485,321.476 229.100 C 321.576 228.715,321.576 228.085,321.476 227.700 C 321.375 227.315,321.293 227.630,321.293 228.400 M164.783 234.900 C 166.441 236.666,166.800 236.984,166.800 236.683 C 166.800 236.619,165.945 235.764,164.900 234.783 L 163.000 233.000 164.783 234.900 M176.200 308.400 C 176.541 309.060,176.911 309.600,177.021 309.600 C 177.131 309.600,176.941 309.060,176.600 308.400 C 176.259 307.740,175.889 307.200,175.779 307.200 C 175.669 307.200,175.859 307.740,176.200 308.400 M282.581 310.900 L 281.000 312.600 282.700 311.019 C 284.281 309.548,284.584 309.200,284.281 309.200 C 284.216 309.200,283.451 309.965,282.581 310.900 M118.200 311.200 C 119.059 312.080,119.852 312.800,119.962 312.800 C 120.072 312.800,119.459 312.080,118.600 311.200 C 117.741 310.320,116.948 309.600,116.838 309.600 C 116.728 309.600,117.341 310.320,118.200 311.200 M126.400 319.325 C 126.400 319.394,126.985 319.979,127.700 320.625 L 129.000 321.800 127.825 320.500 C 126.730 319.288,126.400 319.016,126.400 319.325 M129.600 322.125 C 129.600 322.194,130.185 322.779,130.900 323.425 L 132.200 324.600 131.025 323.300 C 129.930 322.088,129.600 321.816,129.600 322.125 " stroke="none" fill="#94d4e3" fill-rule="evenodd"></path><path id="path4" d="M275.628 136.600 C 275.628 136.820,275.886 137.450,276.200 138.000 C 276.514 138.550,276.772 138.820,276.772 138.600 C 276.772 138.380,276.514 137.750,276.200 137.200 C 275.886 136.650,275.628 136.380,275.628 136.600 M181.600 156.525 C 181.600 156.594,182.185 157.179,182.900 157.825 L 184.200 159.000 183.025 157.700 C 181.930 156.488,181.600 156.216,181.600 156.525 M188.200 162.800 C 189.283 163.900,190.260 164.800,190.370 164.800 C 190.480 164.800,189.683 163.900,188.600 162.800 C 187.517 161.700,186.540 160.800,186.430 160.800 C 186.320 160.800,187.117 161.700,188.200 162.800 M284.093 168.000 C 284.093 168.770,284.175 169.085,284.276 168.700 C 284.376 168.315,284.376 167.685,284.276 167.300 C 284.175 166.915,284.093 167.230,284.093 168.000 M206.778 168.700 L 205.400 170.200 206.900 168.822 C 208.296 167.538,208.584 167.200,208.278 167.200 C 208.212 167.200,207.537 167.875,206.778 168.700 M194.400 169.400 C 195.146 170.170,195.847 170.800,195.957 170.800 C 196.067 170.800,195.546 170.170,194.800 169.400 C 194.054 168.630,193.353 168.000,193.243 168.000 C 193.133 168.000,193.654 168.630,194.400 169.400 M117.293 169.600 C 117.293 170.370,117.375 170.685,117.476 170.300 C 117.576 169.915,117.576 169.285,117.476 168.900 C 117.375 168.515,117.293 168.830,117.293 169.600 M284.544 175.600 C 284.544 177.690,284.612 178.545,284.694 177.500 C 284.776 176.455,284.776 174.745,284.694 173.700 C 284.612 172.655,284.544 173.510,284.544 175.600 M201.185 175.018 C 200.903 175.358,200.386 175.528,200.036 175.395 C 199.523 175.200,199.498 175.251,199.904 175.661 C 200.312 176.071,200.579 175.999,201.293 175.284 C 201.780 174.798,202.070 174.400,201.938 174.400 C 201.806 174.400,201.467 174.678,201.185 175.018 M259.600 215.800 C 258.628 216.790,257.923 217.600,258.033 217.600 C 258.143 217.600,259.028 216.790,260.000 215.800 C 260.972 214.810,261.677 214.000,261.567 214.000 C 261.457 214.000,260.572 214.810,259.600 215.800 M164.783 235.300 C 166.441 237.066,166.800 237.384,166.800 237.083 C 166.800 237.019,165.945 236.164,164.900 235.183 L 163.000 233.400 164.783 235.300 M276.975 316.500 L 275.800 317.800 277.100 316.625 C 277.815 315.979,278.400 315.394,278.400 315.325 C 278.400 315.016,278.070 315.288,276.975 316.500 " stroke="none" fill="#cae5ec" fill-rule="evenodd"></path></g></svg>